<?xml version="1.0" standalone="no"?>
<!DOCTYPE svg PUBLIC "-//W3C//DTD SVG 1.1//EN" "http://www.w3.org/Graphics/SVG/1.1/DTD/svg11.dtd" >
<svg xmlns="http://www.w3.org/2000/svg" xmlns:xlink="http://www.w3.org/1999/xlink" version="1.1" viewBox="-10 0 1243 2048">
   <path fill="currentColor"
d="M700 1030q-164 0 -229 42t-65 144q0 76 45 121t122 45q116 0 180 -87.5t64 -244.5v-20h-117zM1108 917v639h-291v-125q-53 74 -136 114t-183 40q-191 0 -297.5 -101t-106.5 -282q0 -196 127 -289.5t393 -93.5h203v-49q0 -71 -51.5 -107.5t-151.5 -36.5
q-105 0 -203.5 26.5t-205.5 84.5v-250q97 -40 197 -59t212 -19q273 0 383.5 111t110.5 397z" />
</svg>
