<?xml version="1.0" standalone="no"?>
<!DOCTYPE svg PUBLIC "-//W3C//DTD SVG 1.1//EN" "http://www.w3.org/Graphics/SVG/1.1/DTD/svg11.dtd" >
<svg xmlns="http://www.w3.org/2000/svg" xmlns:xlink="http://www.w3.org/1999/xlink" version="1.1" viewBox="-10 0 1243 2048">
   <path fill="currentColor"
d="M410 878v442h196q141 0 197.5 -48t56.5 -167q0 -121 -59 -174t-195 -53h-196zM410 296v347h196q112 0 159.5 -40t47.5 -132t-48.5 -133.5t-158.5 -41.5h-196zM125 61h481q249 0 374.5 94.5t125.5 282.5q0 144 -74 225t-217 94q171 17 257.5 115t86.5 274q0 216 -130 313
t-423 97h-481v-1495z" />
</svg>
