<?xml version="1.0" standalone="no"?>
<!DOCTYPE svg PUBLIC "-//W3C//DTD SVG 1.1//EN" "http://www.w3.org/Graphics/SVG/1.1/DTD/svg11.dtd" >
<svg xmlns="http://www.w3.org/2000/svg" xmlns:xlink="http://www.w3.org/1999/xlink" version="1.1" viewBox="-10 0 1243 2048">
   <path fill="currentColor"
d="M656 1579q-14 3 -23.5 4.5t-18.5 1.5q-257 0 -389.5 -196t-132.5 -578q0 -383 132.5 -579t391.5 -196q260 0 392.5 196t132.5 579q0 263 -63 440.5t-183 253.5l186 182l-202 150zM616 301q-113 0 -165 120.5t-52 389.5q0 268 52 388.5t165 120.5q114 0 166 -120.5
t52 -388.5q0 -269 -52 -389.5t-166 -120.5z" />
</svg>
