<?xml version="1.0" standalone="no"?>
<!DOCTYPE svg PUBLIC "-//W3C//DTD SVG 1.1//EN" "http://www.w3.org/Graphics/SVG/1.1/DTD/svg11.dtd" >
<svg xmlns="http://www.w3.org/2000/svg" xmlns:xlink="http://www.w3.org/1999/xlink" version="1.1" viewBox="-10 0 1243 2048">
   <path fill="currentColor"
d="M991 471v256q-81 -52 -168.5 -78.5t-175.5 -26.5q-98 0 -148 28.5t-50 84.5q0 80 214 130l11 3l84 20q160 38 234.5 122.5t74.5 228.5q0 173 -113.5 259.5t-341.5 86.5q-101 0 -207 -17.5t-215 -52.5v-256q97 55 197.5 84t194.5 29q103 0 156 -30t53 -87q0 -56 -37.5 -86
t-178.5 -64l-81 -18q-168 -38 -245 -119t-77 -217q0 -162 117 -252t329 -90q95 0 189.5 15.5t183.5 46.5z" />
</svg>
