<?xml version="1.0" standalone="no"?>
<!DOCTYPE svg PUBLIC "-//W3C//DTD SVG 1.1//EN" "http://www.w3.org/Graphics/SVG/1.1/DTD/svg11.dtd" >
<svg xmlns="http://www.w3.org/2000/svg" xmlns:xlink="http://www.w3.org/1999/xlink" version="1.1" viewBox="-10 0 1243 2048">
   <path fill="currentColor"
d="M510 901q-223 -85 -302 -178.5t-79 -251.5q0 -203 130 -319t357 -116q103 0 206 23.5t204 69.5v288q-95 -67 -193 -102t-194 -35q-107 0 -164 43t-57 123q0 62 41.5 102.5t173.5 89.5l127 48q180 66 265 175t85 275q0 226 -133.5 337.5t-403.5 111.5q-111 0 -222.5 -26.5
t-215.5 -78.5v-305q118 84 228.5 125t218.5 41q109 0 169 -49.5t60 -138.5q0 -67 -40 -117.5t-116 -79.5z" />
</svg>
